<svg width="64" height="64" viewBox="0 0 64 64" fill="none" xmlns="http://www.w3.org/2000/svg">
  <rect width="64" height="64" rx="16" fill="#F3F6FF"/>
  <path d="M32 18C25.3726 18 20 23.3726 20 30C20 36.6274 25.3726 42 32 42C38.6274 42 44 36.6274 44 30C44 23.3726 38.6274 18 32 18ZM32 39C27.0294 39 23 34.9706 23 30C23 25.0294 27.0294 21 32 21C36.9706 21 41 25.0294 41 30C41 34.9706 36.9706 39 32 39ZM32 24C29.2386 24 27 26.2386 27 29C27 31.7614 29.2386 34 32 34C34.7614 34 37 31.7614 37 29C37 26.2386 34.7614 24 32 24Z" fill="#667eea"/>
  <rect x="28" y="44" width="8" height="4" rx="2" fill="#667eea"/>
</svg> 