<svg xmlns="http://www.w3.org/2000/svg" width="32" height="32" viewBox="0 0 32 32">
  <defs>
    <!-- Gradient definition matching the logo -->
    <radialGradient id="logoGradient" cx="0.3" cy="0.3" r="0.8">
      <stop offset="0%" style="stop-color:#E6C547;stop-opacity:1" />
      <stop offset="50%" style="stop-color:#9B4F96;stop-opacity:1" />
      <stop offset="100%" style="stop-color:#4A3728;stop-opacity:1" />
    </radialGradient>
  </defs>
  
  <!-- Main circle with gradient background -->
  <circle cx="16" cy="16" r="16" fill="url(#logoGradient)" />
  
  <!-- Inner circle with brown overlay -->
  <circle cx="16" cy="16" r="13" fill="#4A3728" fill-opacity="0.2" />
  
  <!-- Sparkles icon scaled and positioned -->
  <g transform="translate(6, 6) scale(1.25)" fill="#E6C547" stroke="#E6C547" stroke-width="1.5" stroke-linecap="round" stroke-linejoin="round">
    <!-- Main sparkle -->
    <path d="M9.937 15.5A2 2 0 0 0 8.5 14.063l-6.135-1.582a.5.5 0 0 1 0-.962L8.5 9.936A2 2 0 0 0 9.937 8.5l1.582-6.135a.5.5 0 0 1 .963 0L14.063 8.5A2 2 0 0 0 15.5 9.937l6.135 1.581a.5.5 0 0 1 0 .964L15.5 14.063a2 2 0 0 0-1.437 1.437l-1.582 6.135a.5.5 0 0 1-.963 0z"/>
    <!-- Small sparkles -->
    <path d="M20 3v4"/>
    <path d="M22 5h-4"/>
    <path d="M4 17v2"/>
    <path d="M5 18H3"/>
  </g>
</svg> 